<svg id="egxmW4z6eq51" xmlns="http://www.w3.org/2000/svg" xmlns:xlink="http://www.w3.org/1999/xlink" viewBox="0 0 479.6 390" shape-rendering="geometricPrecision" text-rendering="geometricPrecision"><defs id="defs536"><filter style="color-interpolation-filters:sRGB;" id="filter33230" x="-0.24527958" y="-0.2792362" width="1.5145459" height="1.5857799"><feFlood flood-opacity="0.435294" flood-color="rgb(0,0,0)" result="flood" id="feFlood33220" /><feComposite in="flood" in2="SourceGraphic" operator="in" result="composite1" id="feComposite33222" /><feGaussianBlur in="composite1" stdDeviation="25.5641" result="blur" id="feGaussianBlur33224" /><feOffset dx="6" dy="6" result="offset" id="feOffset33226" /><feComposite in="SourceGraphic" in2="offset" operator="over" result="composite2" id="feComposite33228" /></filter></defs><g id="egxmW4z6eq52"><g transform="matrix(.92 0 0 0.92 102.4 11.92)"><g transform="translate(0-6)"><rect width="190" height="390" rx="8" ry="8" transform="translate(220 10)" fill="#3e4b65" stroke-width="0"/><path d="M407.400002,10C411.597368,10,415,13.675976,415,18.210526v373.578948C415,396.324024,411.597368,400,407.400002,400L320,400v-390h87.400002Z" transform="matrix(-1 0 0-1 635 410)" fill="#3a4761" stroke-width="0"/><path d="M0,270L0,8.181818C0,3.663125,3.402621,0,7.599966,0h174.800068C186.597379,0,190,3.663125,190,8.181818L190,270" transform="translate(220 10)" fill="#515f7c" stroke-width="0"/></g><g transform="translate(-5-5)"><ellipse rx="13" ry="13" transform="translate(320 339)" fill="#475777" stroke-width="0"/><ellipse rx="9" ry="9" transform="translate(320 339)" fill="#389c4c" stroke-width="0"/></g><g><g transform="translate(.0009 0)"><rect width="190" height="46" rx="0" ry="0" transform="translate(220 220)" fill="#3e4b65" stroke-width="0"/><rect width="174" height="30" rx="0" ry="0" transform="translate(228 228)" fill="#515f7c" stroke-width="0"/></g><g transform="translate(2 0)"><line x1="0" y1="-9" x2="0" y2="7" transform="translate(238 244)" paint-order="stroke fill markers" fill="none" stroke="#374561" stroke-width="6" stroke-linecap="round"/><line x1="0" y1="-9" x2="0" y2="7" transform="translate(250 244)" paint-order="stroke fill markers" fill="none" stroke="#374561" stroke-width="6" stroke-linecap="round"/><line x1="0" y1="-9" x2="0" y2="7" transform="translate(262 244)" paint-order="stroke fill markers" fill="none" stroke="#374561" stroke-width="6" stroke-linecap="round"/></g><g transform="translate(-2 0)"><line x1="-55.220259" y1="0" x2="44.779741" y2="0" transform="translate(337.220259 243)" paint-order="stroke fill markers" fill="none" stroke="#374561" stroke-width="5" stroke-linecap="round"/><g transform="translate(-6 0)"><ellipse rx="9" ry="9" transform="translate(395 243)" fill="#374561" stroke-width="0"/><ellipse rx="5" ry="5" transform="translate(395 243)" fill="#d1ab14" stroke-width="0"/></g><g transform="translate(-10 0)"><ellipse rx="9" ry="9" transform="translate(379 243)" fill="#374561" stroke-width="0"/><ellipse rx="5" ry="5" transform="translate(379 243)" fill="#389c4c" stroke-width="0"/></g></g></g><g transform="translate(-.0009-54)"><g transform="translate(.0009 0)"><rect width="190" height="46" rx="0" ry="0" transform="translate(220 220)" fill="#3e4b65" stroke-width="0"/><rect width="174" height="30" rx="0" ry="0" transform="translate(228 228)" fill="#515f7c" stroke-width="0"/></g><g transform="translate(2 0)"><line x1="0" y1="-9" x2="0" y2="7" transform="translate(238 244)" paint-order="stroke fill markers" fill="none" stroke="#374561" stroke-width="6" stroke-linecap="round"/><line x1="0" y1="-9" x2="0" y2="7" transform="translate(250 244)" paint-order="stroke fill markers" fill="none" stroke="#374561" stroke-width="6" stroke-linecap="round"/><line x1="0" y1="-9" x2="0" y2="7" transform="translate(262 244)" paint-order="stroke fill markers" fill="none" stroke="#374561" stroke-width="6" stroke-linecap="round"/></g><g transform="translate(-2 0)"><line x1="-55.220259" y1="0" x2="44.779741" y2="0" transform="translate(337.220259 243)" paint-order="stroke fill markers" fill="none" stroke="#374561" stroke-width="5" stroke-linecap="round"/><g transform="translate(-6 0)"><ellipse rx="9" ry="9" transform="translate(395 243)" fill="#374561" stroke-width="0"/><ellipse rx="5" ry="5" transform="translate(395 243)" fill="#d1ab14" stroke-width="0"/></g><g transform="translate(-10 0)"><ellipse rx="9" ry="9" transform="translate(379 243)" fill="#374561" stroke-width="0"/><ellipse rx="5" ry="5" transform="translate(379 243)" fill="#389c4c" stroke-width="0"/></g></g></g><g transform="translate(0-108)"><g transform="translate(.0009 0)"><rect width="190" height="46" rx="0" ry="0" transform="translate(220 220)" fill="#3e4b65" stroke-width="0"/><rect width="174" height="30" rx="0" ry="0" transform="translate(228 228)" fill="#515f7c" stroke-width="0"/></g><g transform="translate(2 0)"><line x1="0" y1="-9" x2="0" y2="7" transform="translate(238 244)" paint-order="stroke fill markers" fill="none" stroke="#374561" stroke-width="6" stroke-linecap="round"/><line x1="0" y1="-9" x2="0" y2="7" transform="translate(250 244)" paint-order="stroke fill markers" fill="none" stroke="#374561" stroke-width="6" stroke-linecap="round"/><line x1="0" y1="-9" x2="0" y2="7" transform="translate(262 244)" paint-order="stroke fill markers" fill="none" stroke="#374561" stroke-width="6" stroke-linecap="round"/></g><g transform="translate(-2 0)"><line x1="-55.220259" y1="0" x2="44.779741" y2="0" transform="translate(337.220259 243)" paint-order="stroke fill markers" fill="none" stroke="#374561" stroke-width="5" stroke-linecap="round"/><g transform="translate(-6 0)"><ellipse rx="9" ry="9" transform="translate(395 243)" fill="#374561" stroke-width="0"/><ellipse rx="5" ry="5" transform="translate(395 243)" fill="#d1ab14" stroke-width="0"/></g><g transform="translate(-10 0)"><ellipse rx="9" ry="9" transform="translate(379 243)" fill="#374561" stroke-width="0"/><ellipse rx="5" ry="5" transform="translate(379 243)" fill="#389c4c" stroke-width="0"/></g></g></g><g transform="translate(0-162)"><g transform="translate(.0009 0)"><rect width="190" height="46" rx="0" ry="0" transform="translate(220 220)" fill="#3e4b65" stroke-width="0"/><rect width="174" height="30" rx="0" ry="0" transform="translate(228 228)" fill="#515f7c" stroke-width="0"/></g><g transform="translate(2 0)"><line x1="0" y1="-9" x2="0" y2="7" transform="translate(238 244)" paint-order="stroke fill markers" fill="none" stroke="#374561" stroke-width="6" stroke-linecap="round"/><line x1="0" y1="-9" x2="0" y2="7" transform="translate(250 244)" paint-order="stroke fill markers" fill="none" stroke="#374561" stroke-width="6" stroke-linecap="round"/><line x1="0" y1="-9" x2="0" y2="7" transform="translate(262 244)" paint-order="stroke fill markers" fill="none" stroke="#374561" stroke-width="6" stroke-linecap="round"/></g><g transform="translate(-2 0)"><line x1="-55.220259" y1="0" x2="44.779741" y2="0" transform="translate(337.220259 243)" paint-order="stroke fill markers" fill="none" stroke="#374561" stroke-width="5" stroke-linecap="round"/><g transform="translate(-6 0)"><ellipse rx="9" ry="9" transform="translate(395 243)" fill="#374561" stroke-width="0"/><ellipse rx="5" ry="5" transform="translate(395 243)" fill="#d1ab14" stroke-width="0"/></g><g transform="translate(-10 0)"><ellipse rx="9" ry="9" transform="translate(379 243)" fill="#374561" stroke-width="0"/><ellipse rx="5" ry="5" transform="translate(379 243)" fill="#389c4c" stroke-width="0"/></g></g></g><g transform="translate(0-216)"><g transform="translate(.0009 0)"><path d="M0,46L0,8C0,3.581722,3.402636,0,7.6,0h174.8c4.197364,0,7.6,3.581722,7.6,8v38" transform="translate(220 220)" fill="#3e4b65" stroke-width="0"/><rect width="174" height="30" rx="0" ry="0" transform="translate(228 228)" fill="#515f7c" stroke-width="0"/></g><g transform="translate(2 0)"><line x1="0" y1="-9" x2="0" y2="7" transform="translate(238 244)" paint-order="stroke fill markers" fill="none" stroke="#374561" stroke-width="6" stroke-linecap="round"/><line x1="0" y1="-9" x2="0" y2="7" transform="translate(250 244)" paint-order="stroke fill markers" fill="none" stroke="#374561" stroke-width="6" stroke-linecap="round"/><line x1="0" y1="-9" x2="0" y2="7" transform="translate(262 244)" paint-order="stroke fill markers" fill="none" stroke="#374561" stroke-width="6" stroke-linecap="round"/></g><g transform="translate(-2 0)"><line x1="-55.220259" y1="0" x2="44.779741" y2="0" transform="translate(337.220259 243)" paint-order="stroke fill markers" fill="none" stroke="#374561" stroke-width="5" stroke-linecap="round"/><g transform="translate(-6 0)"><ellipse rx="9" ry="9" transform="translate(395 243)" fill="#374561" stroke-width="0"/><ellipse rx="5" ry="5" transform="translate(395 243)" fill="#d1ab14" stroke-width="0"/></g><g transform="translate(-10 0)"><ellipse rx="9" ry="9" transform="translate(379 243)" fill="#374561" stroke-width="0"/><ellipse rx="5" ry="5" transform="translate(379 243)" fill="#389c4c" stroke-width="0"/></g></g></g></g><g transform="matrix(.92 0 0 0.92-202.4 11.92)"><g transform="translate(0-6)"><rect width="190" height="390" rx="8" ry="8" transform="translate(220 10)" fill="#3e4b65" stroke-width="0"/><path d="M407.400002,10C411.597368,10,415,13.675976,415,18.210526v373.578948C415,396.324024,411.597368,400,407.400002,400L320,400v-390h87.400002Z" transform="matrix(-1 0 0-1 635 410)" fill="#3a4761" stroke-width="0"/><path d="M0,270L0,8.181818C0,3.663125,3.402621,0,7.599966,0h174.800068C186.597379,0,190,3.663125,190,8.181818L190,270" transform="translate(220 10)" fill="#515f7c" stroke-width="0"/></g><g transform="translate(-5-5)"><ellipse rx="13" ry="13" transform="translate(320 339)" fill="#475777" stroke-width="0"/><ellipse rx="9" ry="9" transform="translate(320 339)" fill="#389c4c" stroke-width="0"/></g><g><g transform="translate(.0009 0)"><rect width="190" height="46" rx="0" ry="0" transform="translate(220 220)" fill="#3e4b65" stroke-width="0"/><rect width="174" height="30" rx="0" ry="0" transform="translate(228 228)" fill="#515f7c" stroke-width="0"/></g><g transform="translate(2 0)"><line x1="0" y1="-9" x2="0" y2="7" transform="translate(238 244)" paint-order="stroke fill markers" fill="none" stroke="#374561" stroke-width="6" stroke-linecap="round"/><line x1="0" y1="-9" x2="0" y2="7" transform="translate(250 244)" paint-order="stroke fill markers" fill="none" stroke="#374561" stroke-width="6" stroke-linecap="round"/><line x1="0" y1="-9" x2="0" y2="7" transform="translate(262 244)" paint-order="stroke fill markers" fill="none" stroke="#374561" stroke-width="6" stroke-linecap="round"/></g><g transform="translate(-2 0)"><line x1="-55.220259" y1="0" x2="44.779741" y2="0" transform="translate(337.220259 243)" paint-order="stroke fill markers" fill="none" stroke="#374561" stroke-width="5" stroke-linecap="round"/><g transform="translate(-6 0)"><ellipse rx="9" ry="9" transform="translate(395 243)" fill="#374561" stroke-width="0"/><ellipse rx="5" ry="5" transform="translate(395 243)" fill="#d1ab14" stroke-width="0"/></g><g transform="translate(-10 0)"><ellipse rx="9" ry="9" transform="translate(379 243)" fill="#374561" stroke-width="0"/><ellipse rx="5" ry="5" transform="translate(379 243)" fill="#389c4c" stroke-width="0"/></g></g></g><g transform="translate(-.0009-54)"><g transform="translate(.0009 0)"><rect width="190" height="46" rx="0" ry="0" transform="translate(220 220)" fill="#3e4b65" stroke-width="0"/><rect width="174" height="30" rx="0" ry="0" transform="translate(228 228)" fill="#515f7c" stroke-width="0"/></g><g transform="translate(2 0)"><line x1="0" y1="-9" x2="0" y2="7" transform="translate(238 244)" paint-order="stroke fill markers" fill="none" stroke="#374561" stroke-width="6" stroke-linecap="round"/><line x1="0" y1="-9" x2="0" y2="7" transform="translate(250 244)" paint-order="stroke fill markers" fill="none" stroke="#374561" stroke-width="6" stroke-linecap="round"/><line x1="0" y1="-9" x2="0" y2="7" transform="translate(262 244)" paint-order="stroke fill markers" fill="none" stroke="#374561" stroke-width="6" stroke-linecap="round"/></g><g transform="translate(-2 0)"><line x1="-55.220259" y1="0" x2="44.779741" y2="0" transform="translate(337.220259 243)" paint-order="stroke fill markers" fill="none" stroke="#374561" stroke-width="5" stroke-linecap="round"/><g transform="translate(-6 0)"><ellipse rx="9" ry="9" transform="translate(395 243)" fill="#374561" stroke-width="0"/><ellipse rx="5" ry="5" transform="translate(395 243)" fill="#d1ab14" stroke-width="0"/></g><g transform="translate(-10 0)"><ellipse rx="9" ry="9" transform="translate(379 243)" fill="#374561" stroke-width="0"/><ellipse rx="5" ry="5" transform="translate(379 243)" fill="#389c4c" stroke-width="0"/></g></g></g><g transform="translate(0-108)"><g transform="translate(.0009 0)"><rect width="190" height="46" rx="0" ry="0" transform="translate(220 220)" fill="#3e4b65" stroke-width="0"/><rect width="174" height="30" rx="0" ry="0" transform="translate(228 228)" fill="#515f7c" stroke-width="0"/></g><g transform="translate(2 0)"><line x1="0" y1="-9" x2="0" y2="7" transform="translate(238 244)" paint-order="stroke fill markers" fill="none" stroke="#374561" stroke-width="6" stroke-linecap="round"/><line x1="0" y1="-9" x2="0" y2="7" transform="translate(250 244)" paint-order="stroke fill markers" fill="none" stroke="#374561" stroke-width="6" stroke-linecap="round"/><line x1="0" y1="-9" x2="0" y2="7" transform="translate(262 244)" paint-order="stroke fill markers" fill="none" stroke="#374561" stroke-width="6" stroke-linecap="round"/></g><g transform="translate(-2 0)"><line x1="-55.220259" y1="0" x2="44.779741" y2="0" transform="translate(337.220259 243)" paint-order="stroke fill markers" fill="none" stroke="#374561" stroke-width="5" stroke-linecap="round"/><g transform="translate(-6 0)"><ellipse rx="9" ry="9" transform="translate(395 243)" fill="#374561" stroke-width="0"/><ellipse rx="5" ry="5" transform="translate(395 243)" fill="#d1ab14" stroke-width="0"/></g><g transform="translate(-10 0)"><ellipse rx="9" ry="9" transform="translate(379 243)" fill="#374561" stroke-width="0"/><ellipse rx="5" ry="5" transform="translate(379 243)" fill="#389c4c" stroke-width="0"/></g></g></g><g transform="translate(0-162)"><g transform="translate(.0009 0)"><rect width="190" height="46" rx="0" ry="0" transform="translate(220 220)" fill="#3e4b65" stroke-width="0"/><rect width="174" height="30" rx="0" ry="0" transform="translate(228 228)" fill="#515f7c" stroke-width="0"/></g><g transform="translate(2 0)"><line x1="0" y1="-9" x2="0" y2="7" transform="translate(238 244)" paint-order="stroke fill markers" fill="none" stroke="#374561" stroke-width="6" stroke-linecap="round"/><line x1="0" y1="-9" x2="0" y2="7" transform="translate(250 244)" paint-order="stroke fill markers" fill="none" stroke="#374561" stroke-width="6" stroke-linecap="round"/><line x1="0" y1="-9" x2="0" y2="7" transform="translate(262 244)" paint-order="stroke fill markers" fill="none" stroke="#374561" stroke-width="6" stroke-linecap="round"/></g><g transform="translate(-2 0)"><line x1="-55.220259" y1="0" x2="44.779741" y2="0" transform="translate(337.220259 243)" paint-order="stroke fill markers" fill="none" stroke="#374561" stroke-width="5" stroke-linecap="round"/><g transform="translate(-6 0)"><ellipse rx="9" ry="9" transform="translate(395 243)" fill="#374561" stroke-width="0"/><ellipse rx="5" ry="5" transform="translate(395 243)" fill="#d1ab14" stroke-width="0"/></g><g transform="translate(-10 0)"><ellipse rx="9" ry="9" transform="translate(379 243)" fill="#374561" stroke-width="0"/><ellipse rx="5" ry="5" transform="translate(379 243)" fill="#389c4c" stroke-width="0"/></g></g></g><g transform="translate(0-216)"><g transform="translate(.0009 0)"><path d="M0,46L0,8C0,3.581722,3.402636,0,7.6,0h174.8c4.197364,0,7.6,3.581722,7.6,8v38" transform="translate(220 220)" fill="#3e4b65" stroke-width="0"/><rect width="174" height="30" rx="0" ry="0" transform="translate(228 228)" fill="#515f7c" stroke-width="0"/></g><g transform="translate(2 0)"><line x1="0" y1="-9" x2="0" y2="7" transform="translate(238 244)" paint-order="stroke fill markers" fill="none" stroke="#374561" stroke-width="6" stroke-linecap="round"/><line x1="0" y1="-9" x2="0" y2="7" transform="translate(250 244)" paint-order="stroke fill markers" fill="none" stroke="#374561" stroke-width="6" stroke-linecap="round"/><line x1="0" y1="-9" x2="0" y2="7" transform="translate(262 244)" paint-order="stroke fill markers" fill="none" stroke="#374561" stroke-width="6" stroke-linecap="round"/></g><g transform="translate(-2 0)"><line x1="-55.220259" y1="0" x2="44.779741" y2="0" transform="translate(337.220259 243)" paint-order="stroke fill markers" fill="none" stroke="#374561" stroke-width="5" stroke-linecap="round"/><g transform="translate(-6 0)"><ellipse rx="9" ry="9" transform="translate(395 243)" fill="#374561" stroke-width="0"/><ellipse rx="5" ry="5" transform="translate(395 243)" fill="#d1ab14" stroke-width="0"/></g><g transform="translate(-10 0)"><ellipse rx="9" ry="9" transform="translate(379 243)" fill="#374561" stroke-width="0"/><ellipse rx="5" ry="5" transform="translate(379 243)" fill="#389c4c" stroke-width="0"/></g></g></g></g><rect width="220" height="358.8" rx="0" ry="0" transform="translate(137.9 15.6)" fill-opacity="0.35" stroke-width="0"/><g transform="translate(-67.6-4)"><g transform="translate(0-6)"><rect width="190" height="390" rx="8" ry="8" transform="translate(220 10)" fill="#3e4b65" stroke-width="0"/><path d="M407.400002,10C411.597368,10,415,13.675976,415,18.210526v373.578948C415,396.324024,411.597368,400,407.400002,400L320,400v-390h87.400002Z" transform="translate(-5 0)" fill="#3a4761" stroke-width="0"/><path d="M0,270L0,8.181818C0,3.663125,3.402621,0,7.599966,0h174.800068C186.597379,0,190,3.663125,190,8.181818L190,270" transform="translate(220 10)" fill="#515f7c" stroke-width="0"/></g><g transform="translate(-5-5)"><ellipse rx="13" ry="13" transform="translate(320 339)" fill="#475777" stroke-width="0"/><ellipse rx="9" ry="9" transform="translate(320 339)" fill="#389c4c" stroke-width="0"/></g><g><g transform="translate(.0009 0)"><rect width="190" height="46" rx="0" ry="0" transform="translate(220 220)" fill="#3e4b65" stroke-width="0"/><rect width="174" height="30" rx="0" ry="0" transform="translate(228 228)" fill="#515f7c" stroke-width="0"/></g><g transform="translate(2 0)"><line x1="0" y1="-9" x2="0" y2="7" transform="translate(238 244)" paint-order="stroke fill markers" fill="none" stroke="#374561" stroke-width="6" stroke-linecap="round"/><line x1="0" y1="-9" x2="0" y2="7" transform="translate(250 244)" paint-order="stroke fill markers" fill="none" stroke="#374561" stroke-width="6" stroke-linecap="round"/><line x1="0" y1="-9" x2="0" y2="7" transform="translate(262 244)" paint-order="stroke fill markers" fill="none" stroke="#374561" stroke-width="6" stroke-linecap="round"/></g><g transform="translate(-2 0)"><line x1="-55.220259" y1="0" x2="44.779741" y2="0" transform="translate(337.220259 243)" paint-order="stroke fill markers" fill="none" stroke="#374561" stroke-width="5" stroke-linecap="round"/><g transform="translate(-6 0)"><ellipse rx="9" ry="9" transform="translate(395 243)" fill="#374561" stroke-width="0"/><ellipse rx="5" ry="5" transform="translate(395 243)" fill="#d1ab14" stroke-width="0"/></g><g transform="translate(-10 0)"><ellipse rx="9" ry="9" transform="translate(379 243)" fill="#374561" stroke-width="0"/><ellipse rx="5" ry="5" transform="translate(379 243)" fill="#389c4c" stroke-width="0"/></g></g></g><g transform="translate(-.0009-54)"><g transform="translate(.0009 0)"><rect width="190" height="46" rx="0" ry="0" transform="translate(220 220)" fill="#3e4b65" stroke-width="0"/><rect width="174" height="30" rx="0" ry="0" transform="translate(228 228)" fill="#515f7c" stroke-width="0"/></g><g transform="translate(2 0)"><line x1="0" y1="-9" x2="0" y2="7" transform="translate(238 244)" paint-order="stroke fill markers" fill="none" stroke="#374561" stroke-width="6" stroke-linecap="round"/><line x1="0" y1="-9" x2="0" y2="7" transform="translate(250 244)" paint-order="stroke fill markers" fill="none" stroke="#374561" stroke-width="6" stroke-linecap="round"/><line x1="0" y1="-9" x2="0" y2="7" transform="translate(262 244)" paint-order="stroke fill markers" fill="none" stroke="#374561" stroke-width="6" stroke-linecap="round"/></g><g transform="translate(-2 0)"><line x1="-55.220259" y1="0" x2="44.779741" y2="0" transform="translate(337.220259 243)" paint-order="stroke fill markers" fill="none" stroke="#374561" stroke-width="5" stroke-linecap="round"/><g transform="translate(-6 0)"><ellipse rx="9" ry="9" transform="translate(395 243)" fill="#374561" stroke-width="0"/><ellipse rx="5" ry="5" transform="translate(395 243)" fill="#d1ab14" stroke-width="0"/></g><g transform="translate(-10 0)"><ellipse rx="9" ry="9" transform="translate(379 243)" fill="#374561" stroke-width="0"/><ellipse rx="5" ry="5" transform="translate(379 243)" fill="#389c4c" stroke-width="0"/></g></g></g><g transform="translate(0-108)"><g transform="translate(.0009 0)"><rect width="190" height="46" rx="0" ry="0" transform="translate(220 220)" fill="#3e4b65" stroke-width="0"/><rect width="174" height="30" rx="0" ry="0" transform="translate(228 228)" fill="#515f7c" stroke-width="0"/></g><g transform="translate(2 0)"><line x1="0" y1="-9" x2="0" y2="7" transform="translate(238 244)" paint-order="stroke fill markers" fill="none" stroke="#374561" stroke-width="6" stroke-linecap="round"/><line x1="0" y1="-9" x2="0" y2="7" transform="translate(250 244)" paint-order="stroke fill markers" fill="none" stroke="#374561" stroke-width="6" stroke-linecap="round"/><line x1="0" y1="-9" x2="0" y2="7" transform="translate(262 244)" paint-order="stroke fill markers" fill="none" stroke="#374561" stroke-width="6" stroke-linecap="round"/></g><g transform="translate(-2 0)"><line x1="-55.220259" y1="0" x2="44.779741" y2="0" transform="translate(337.220259 243)" paint-order="stroke fill markers" fill="none" stroke="#374561" stroke-width="5" stroke-linecap="round"/><g transform="translate(-6 0)"><ellipse rx="9" ry="9" transform="translate(395 243)" fill="#374561" stroke-width="0"/><ellipse rx="5" ry="5" transform="translate(395 243)" fill="#d1ab14" stroke-width="0"/></g><g transform="translate(-10 0)"><ellipse rx="9" ry="9" transform="translate(379 243)" fill="#374561" stroke-width="0"/><ellipse rx="5" ry="5" transform="translate(379 243)" fill="#389c4c" stroke-width="0"/></g></g></g><g transform="translate(0-162)"><g transform="translate(.0009 0)"><rect width="190" height="46" rx="0" ry="0" transform="translate(220 220)" fill="#3e4b65" stroke-width="0"/><rect width="174" height="30" rx="0" ry="0" transform="translate(228 228)" fill="#515f7c" stroke-width="0"/></g><g transform="translate(2 0)"><line x1="0" y1="-9" x2="0" y2="7" transform="translate(238 244)" paint-order="stroke fill markers" fill="none" stroke="#374561" stroke-width="6" stroke-linecap="round"/><line x1="0" y1="-9" x2="0" y2="7" transform="translate(250 244)" paint-order="stroke fill markers" fill="none" stroke="#374561" stroke-width="6" stroke-linecap="round"/><line x1="0" y1="-9" x2="0" y2="7" transform="translate(262 244)" paint-order="stroke fill markers" fill="none" stroke="#374561" stroke-width="6" stroke-linecap="round"/></g><g transform="translate(-2 0)"><line x1="-55.220259" y1="0" x2="44.779741" y2="0" transform="translate(337.220259 243)" paint-order="stroke fill markers" fill="none" stroke="#374561" stroke-width="5" stroke-linecap="round"/><g transform="translate(-6 0)"><ellipse rx="9" ry="9" transform="translate(395 243)" fill="#374561" stroke-width="0"/><ellipse rx="5" ry="5" transform="translate(395 243)" fill="#d1ab14" stroke-width="0"/></g><g transform="translate(-10 0)"><ellipse rx="9" ry="9" transform="translate(379 243)" fill="#374561" stroke-width="0"/><ellipse rx="5" ry="5" transform="translate(379 243)" fill="#389c4c" stroke-width="0"/></g></g></g><g transform="translate(0-216)"><g transform="translate(.0009 0)"><path d="M0,46L0,8C0,3.581722,3.402636,0,7.6,0h174.8c4.197364,0,7.6,3.581722,7.6,8v38" transform="translate(220 220)" fill="#3e4b65" stroke-width="0"/><rect width="174" height="30" rx="0" ry="0" transform="translate(228 228)" fill="#515f7c" stroke-width="0"/></g><g transform="translate(2 0)"><line x1="0" y1="-9" x2="0" y2="7" transform="translate(238 244)" paint-order="stroke fill markers" fill="none" stroke="#374561" stroke-width="6" stroke-linecap="round"/><line x1="0" y1="-9" x2="0" y2="7" transform="translate(250 244)" paint-order="stroke fill markers" fill="none" stroke="#374561" stroke-width="6" stroke-linecap="round"/><line x1="0" y1="-9" x2="0" y2="7" transform="translate(262 244)" paint-order="stroke fill markers" fill="none" stroke="#374561" stroke-width="6" stroke-linecap="round"/></g><g transform="translate(-2 0)"><line x1="-55.220259" y1="0" x2="44.779741" y2="0" transform="translate(337.220259 243)" paint-order="stroke fill markers" fill="none" stroke="#374561" stroke-width="5" stroke-linecap="round"/><g transform="translate(-6 0)"><ellipse rx="9" ry="9" transform="translate(395 243)" fill="#374561" stroke-width="0"/><ellipse rx="5" ry="5" transform="translate(395 243)" fill="#d1ab14" stroke-width="0"/></g><g transform="translate(-10 0)"><ellipse rx="9" ry="9" transform="translate(379 243)" fill="#374561" stroke-width="0"/><ellipse rx="5" ry="5" transform="translate(379 243)" fill="#389c4c" stroke-width="0"/></g></g></g></g></g><path style="fill:#c83737;stroke-width:0;stroke-linecap:round;filter:url(#filter33230)" id="path1558" d="m 353.32219,296.10798 -93.52218,10e-6 -133.5222,-10e-6 a 11.547007,11.547007 60 0 1 -10,-17.32051 L 163.0389,197.79488 229.8,82.161267 a 11.547007,11.547007 2.5219885e-7 0 1 20,0 l 46.7611,80.992593 66.7611,115.63361 a 11.547007,11.547007 120 0 1 -10.00001,17.32051 z" /><g aria-label="!" transform="matrix(1.6526682,0,0,1.6526682,-140.20856,-148.66588)" id="text4980"><path d="m 236.33639,182.264 c 0,-6.784 -5.248,-7.296 -6.4,-7.296 -1.152,0 -6.4,0.512 -6.4,7.296 l 0.896,29.952 0.384,15.488 c 0.128,3.328 3.456,3.328 5.12,3.328 4.608,0 4.992,-1.024 5.248,-6.144 l 0.512,-22.144 c 0.128,-6.656 0.64,-13.696 0.64,-20.48 z m 0,65.92 c 0,-3.584 -2.816,-6.4 -6.4,-6.4 -3.584,0 -6.4,2.816 -6.4,6.4 0,3.584 2.816,6.4 6.4,6.4 3.584,0 6.4,-2.816 6.4,-6.4 z" style="fill:#ffffff" id="path41205" /></g></svg>